<svg width="15" height="15" viewBox="0 0 15 15" fill="none" xmlns="http://www.w3.org/2000/svg">
<path fill-rule="evenodd" clip-rule="evenodd" d="M2.695 0.742188H6.487L6.32 0.959198L2.781 5.06818L2.581 5.00519V0.742188H2.695ZM11.09 9.82919L9.09 7.86319L8.82899 8.01718L8.429 7.64218C8.73261 7.22524 8.87621 6.71304 8.83363 6.19904C8.79104 5.68503 8.56509 5.20348 8.197 4.84219C7.77709 4.43442 7.21482 4.20633 6.6295 4.20633C6.04418 4.20633 5.4819 4.43442 5.062 4.84219C4.85603 5.04221 4.6923 5.28152 4.58049 5.54596C4.46868 5.8104 4.41107 6.09458 4.41107 6.38168C4.41107 6.66879 4.46868 6.95297 4.58049 7.21741C4.6923 7.48185 4.85603 7.72115 5.062 7.92117C5.43685 8.28505 5.92686 8.50681 6.44763 8.54825C6.9684 8.58968 7.48733 8.44822 7.915 8.14819L8.286 8.49918L8.13599 8.79419L10.136 10.7642C10.3979 10.7601 10.6484 10.656 10.836 10.4732C10.9936 10.2961 11.0823 10.0682 11.086 9.83118L11.09 9.82919ZM7.837 7.56519C7.51422 7.88024 7.08105 8.05661 6.63 8.05661C6.17895 8.05661 5.74577 7.88024 5.423 7.56519C5.2647 7.41098 5.13889 7.22665 5.05299 7.02304C4.96708 6.81943 4.92282 6.60069 4.92282 6.3797C4.92282 6.15871 4.96708 5.93994 5.05299 5.73633C5.13889 5.53272 5.2647 5.34838 5.423 5.19418C5.74614 4.87983 6.17918 4.70395 6.63 4.70395C7.08082 4.70395 7.51385 4.87983 7.837 5.19418C7.99554 5.34824 8.12158 5.53255 8.20764 5.73618C8.2937 5.9398 8.33804 6.15863 8.33804 6.3797C8.33804 6.60077 8.2937 6.81957 8.20764 7.02319C8.12158 7.22682 7.99554 7.41113 7.837 7.56519ZM1.771 14.6432H6.18V10.7512H7.948V14.6422H12.386V8.80518H14.157L7.077 1.01819L0 8.80518H1.771V14.6432Z" fill="#FF5A3C"/>
</svg>
